<svg version="1.1" id="Layer_1" xmlns="http://www.w3.org/2000/svg" xmlns:xlink="http://www.w3.org/1999/xlink" x="0px" y="0px"
	 width="100%" viewBox="0 0 128 128" enable-background="new 0 0 128 128" xml:space="preserve">
<path fill="#000000" opacity="1.000000" stroke="none" 
	d="
M1.000000,55.000000 
	C1.000000,36.666668 1.000000,18.833334 1.000000,1.000000 
	C43.666668,1.000000 86.333336,1.000000 129.000000,1.000000 
	C129.000000,43.666668 129.000000,86.333336 129.000000,129.000000 
	C86.333336,129.000000 43.666668,129.000000 1.000000,129.000000 
	C1.000000,104.500000 1.000000,80.000000 1.000000,55.000000 
M115.664162,101.863739 
	C124.398941,89.621956 127.751282,75.997154 127.099380,61.008171 
	C126.473625,46.620277 121.339523,34.150539 111.958817,23.636909 
	C99.271889,9.417747 83.283691,2.455079 63.903076,2.904455 
	C38.723934,3.488281 20.871443,15.287634 9.015602,36.980255 
	C2.634957,48.654919 1.884537,61.468975 3.220287,74.174751 
	C4.295407,84.401382 8.030503,94.108063 15.224413,102.784729 
	C25.354197,116.746933 39.340374,124.944679 56.110516,126.777054 
	C79.874657,129.373627 100.422386,122.438927 115.664162,101.863739 
z"/>
<path fill="#E9CBF1" opacity="1.000000" stroke="none" 
	d="
M14.983305,102.161530 
	C8.030503,94.108063 4.295407,84.401382 3.220287,74.174751 
	C1.884537,61.468975 2.634957,48.654919 9.015602,36.980255 
	C20.871443,15.287634 38.723934,3.488281 63.903076,2.904455 
	C83.283691,2.455079 99.271889,9.417747 111.958817,23.636909 
	C121.339523,34.150539 126.473625,46.620277 127.099380,61.008171 
	C127.751282,75.997154 124.398941,89.621956 115.095016,101.779861 
	C89.292679,68.523056 41.499668,68.746574 14.983305,102.161530 
M84.067848,59.455299 
	C84.705513,58.484184 85.403412,57.546936 85.971504,56.536697 
	C91.418907,46.849617 89.532303,35.525074 81.150970,27.462242 
	C73.483727,20.086361 61.755356,18.876156 52.670055,24.523417 
	C43.036968,30.511164 38.766880,41.642780 42.128723,52.101467 
	C47.783890,69.694679 70.931511,75.613251 84.067848,59.455299 
z"/>
<path fill="#CE56F2" opacity="1.000000" stroke="none" 
	d="
M15.103859,102.473129 
	C41.499668,68.746574 89.292679,68.523056 114.768036,101.932793 
	C100.422386,122.438927 79.874657,129.373627 56.110516,126.777054 
	C39.340374,124.944679 25.354197,116.746933 15.103859,102.473129 
z"/>
<path fill="#CE56F2" opacity="1.000000" stroke="none" 
	d="
M83.835770,59.732918 
	C70.931511,75.613251 47.783890,69.694679 42.128723,52.101467 
	C38.766880,41.642780 43.036968,30.511164 52.670055,24.523417 
	C61.755356,18.876156 73.483727,20.086361 81.150970,27.462242 
	C89.532303,35.525074 91.418907,46.849617 85.971504,56.536697 
	C85.403412,57.546936 84.705513,58.484184 83.835770,59.732918 
z"/>
</svg>